<svg width="248" height="250" viewBox="0 0 248 250" fill="none" xmlns="http://www.w3.org/2000/svg">
<rect width="248" height="250" rx="32" fill="#050416"/>
<path d="M117.683 190.997L130.17 198.896L138.069 186.409L106.895 166.688L154.235 91.8539L185.409 111.574L193.308 99.0871L180.821 91.188L188.72 78.701L170.033 66.8799L177.932 54.3929L165.445 46.4938L157.546 58.9807L138.859 47.1596L130.96 59.6466L118.473 51.7475L110.574 64.2345L141.748 83.9547L94.4082 158.789L63.2344 139.069L55.3353 151.556L67.8223 159.455L59.9231 171.942L78.6099 183.763L70.7108 196.25L83.1978 204.149L91.0969 191.662L109.784 203.484L117.683 190.997Z" fill="#FDA743"/>
</svg>
