<svg width="139" height="159" viewBox="0 0 139 159" fill="none" xmlns="http://www.w3.org/2000/svg">
<path d="M62.6829 144.997L75.1699 152.896L83.069 140.409L51.8952 120.688L99.2348 45.8539L130.409 65.5741L138.308 53.0871L125.821 45.188L133.72 32.701L115.033 20.8799L122.932 8.3929L110.445 0.493755L102.546 12.9807L83.8593 1.15964L75.9602 13.6466L63.4732 5.74749L55.574 18.2345L86.7479 37.9547L39.4082 112.789L8.23441 93.0691L0.335267 105.556L12.8223 113.455L4.92311 125.942L23.6099 137.763L15.7108 150.25L28.1978 158.149L36.0969 145.662L54.7837 157.484L62.6829 144.997Z" fill="#FDA743"/>
</svg>
